<svg width="36" height="36" viewBox="0 0 36 36" fill="none" xmlns="http://www.w3.org/2000/svg">
<circle cx="18" cy="18" r="18" fill="#094B72"/>
<path d="M20.32 24.14C19.2933 24.14 18.3733 23.9733 17.56 23.64C16.7467 23.3067 16.0933 22.8133 15.6 22.16C15.12 21.5067 14.8667 20.72 14.84 19.8H18.48C18.5333 20.32 18.7133 20.72 19.02 21C19.3267 21.2667 19.7267 21.4 20.22 21.4C20.7267 21.4 21.1267 21.2867 21.42 21.06C21.7133 20.82 21.86 20.4933 21.86 20.08C21.86 19.7333 21.74 19.4467 21.5 19.22C21.2733 18.9933 20.9867 18.8067 20.64 18.66C20.3067 18.5133 19.8267 18.3467 19.2 18.16C18.2933 17.88 17.5533 17.6 16.98 17.32C16.4067 17.04 15.9133 16.6267 15.5 16.08C15.0867 15.5333 14.88 14.82 14.88 13.94C14.88 12.6333 15.3533 11.6133 16.3 10.88C17.2467 10.1333 18.48 9.76 20 9.76C21.5467 9.76 22.7933 10.1333 23.74 10.88C24.6867 11.6133 25.1933 12.64 25.26 13.96H21.56C21.5333 13.5067 21.3667 13.1533 21.06 12.9C20.7533 12.6333 20.36 12.5 19.88 12.5C19.4667 12.5 19.1333 12.6133 18.88 12.84C18.6267 13.0533 18.5 13.3667 18.5 13.78C18.5 14.2333 18.7133 14.5867 19.14 14.84C19.5667 15.0933 20.2333 15.3667 21.14 15.66C22.0467 15.9667 22.78 16.26 23.34 16.54C23.9133 16.82 24.4067 17.2267 24.82 17.76C25.2333 18.2933 25.44 18.98 25.44 19.82C25.44 20.62 25.2333 21.3467 24.82 22C24.42 22.6533 23.8333 23.1733 23.06 23.56C22.2867 23.9467 21.3733 24.14 20.32 24.14Z" fill="white"/>
</svg>
